<svg xmlns="http://www.w3.org/2000/svg" xmlns:xlink="http://www.w3.org/1999/xlink" width="500" zoomAndPan="magnify" viewBox="0 0 375 374.999991" height="500" preserveAspectRatio="xMidYMid meet" version="1.2"><defs><clipPath id="2f339e70d0"><path d="M 187.5 0 C 83.945312 0 0 83.945312 0 187.5 C 0 291.054688 83.945312 375 187.5 375 C 291.054688 375 375 291.054688 375 187.5 C 375 83.945312 291.054688 0 187.5 0 Z M 187.5 0 "/></clipPath><clipPath id="3b6c3844e0"><path d="M 9.722656 9.722656 L 365.222656 9.722656 L 365.222656 365.222656 L 9.722656 365.222656 Z M 9.722656 9.722656 "/></clipPath></defs><g id="72363a7858"><g clip-rule="nonzero" clip-path="url(#2f339e70d0)"><rect x="0" width="375" y="0" height="374.999991" style="fill:#000000;fill-opacity:1;stroke:none;"/></g><g style="fill:#02d67e;fill-opacity:1;"><g transform="translate(38.70956, 255.309685)"><path style="stroke:none" d="M 91.53125 -111.515625 C 91.53125 -110.546875 91.195312 -109.695312 90.53125 -108.96875 C 89.875 -108.25 89 -107.890625 87.90625 -107.890625 L 40.5 -107.890625 C 39.53125 -107.890625 38.679688 -107.554688 37.953125 -106.890625 C 37.234375 -106.222656 36.875 -105.40625 36.875 -104.4375 C 36.875 -100.675781 36.84375 -96.492188 36.78125 -91.890625 C 36.71875 -87.296875 36.625 -82.273438 36.5 -76.828125 C 36.5 -75.859375 36.863281 -75.007812 37.59375 -74.28125 C 38.320312 -73.550781 39.171875 -73.1875 40.140625 -73.1875 L 78.46875 -73.1875 C 79.4375 -73.1875 80.28125 -72.820312 81 -72.09375 C 81.726562 -71.375 82.09375 -70.53125 82.09375 -69.5625 L 82.09375 -57.578125 C 82.09375 -56.609375 81.726562 -55.757812 81 -55.03125 C 80.28125 -54.300781 79.4375 -53.9375 78.46875 -53.9375 L 40.140625 -53.9375 C 39.171875 -53.9375 38.320312 -53.570312 37.59375 -52.84375 C 36.863281 -52.125 36.5 -51.28125 36.5 -50.3125 C 36.625 -44.863281 36.71875 -39.835938 36.78125 -35.234375 C 36.84375 -30.628906 36.875 -26.453125 36.875 -22.703125 C 36.875 -21.734375 37.234375 -20.914062 37.953125 -20.25 C 38.679688 -19.582031 39.53125 -19.25 40.5 -19.25 L 87.90625 -19.25 C 89 -19.25 89.875 -18.882812 90.53125 -18.15625 C 91.195312 -17.4375 91.53125 -16.59375 91.53125 -15.625 L 91.53125 -3.625 C 91.53125 -2.65625 91.195312 -1.804688 90.53125 -1.078125 C 89.875 -0.359375 89 0 87.90625 0 L 12.71875 0 C 11.625 0 10.742188 -0.359375 10.078125 -1.078125 C 9.410156 -1.804688 9.078125 -2.65625 9.078125 -3.625 C 9.203125 -7.625 9.382812 -14.675781 9.625 -24.78125 C 9.863281 -34.894531 9.984375 -47.820312 9.984375 -63.5625 C 9.984375 -79.425781 9.863281 -92.382812 9.625 -102.4375 C 9.382812 -112.488281 9.203125 -119.507812 9.078125 -123.5 C 9.078125 -124.46875 9.410156 -125.316406 10.078125 -126.046875 C 10.742188 -126.773438 11.625 -127.140625 12.71875 -127.140625 L 87.90625 -127.140625 C 89 -127.140625 89.875 -126.773438 90.53125 -126.046875 C 91.195312 -125.316406 91.53125 -124.46875 91.53125 -123.5 Z M 91.53125 -111.515625 "/></g></g><g style="fill:#02d67e;fill-opacity:1;"><g transform="translate(133.519234, 255.309685)"><path style="stroke:none" d="M 91.53125 -127.140625 C 92.863281 -127.140625 93.863281 -126.5625 94.53125 -125.40625 C 95.195312 -124.257812 95.226562 -123.082031 94.625 -121.875 C 93.414062 -119.332031 91.71875 -115.816406 89.53125 -111.328125 C 87.351562 -106.847656 84.875 -101.460938 82.09375 -95.171875 C 78.945312 -88.148438 76.40625 -82.242188 74.46875 -77.453125 C 72.53125 -72.671875 71.078125 -69.132812 70.109375 -66.84375 C 69.253906 -64.65625 69.253906 -62.472656 70.109375 -60.296875 C 71.078125 -57.878906 72.53125 -54.304688 74.46875 -49.578125 C 76.40625 -44.859375 78.945312 -38.988281 82.09375 -31.96875 C 84.875 -25.664062 87.351562 -20.273438 89.53125 -15.796875 C 91.71875 -11.316406 93.414062 -7.804688 94.625 -5.265625 C 95.226562 -4.054688 95.195312 -2.875 94.53125 -1.71875 C 93.863281 -0.570312 92.863281 0 91.53125 0 L 71.375 0 C 69.675781 0 68.523438 -0.847656 67.921875 -2.546875 C 67.316406 -4.722656 66.132812 -8.289062 64.375 -13.25 C 62.625 -18.21875 60.296875 -24.457031 57.390625 -31.96875 C 56.546875 -34.144531 55.726562 -36.234375 54.9375 -38.234375 C 54.15625 -40.234375 53.398438 -42.140625 52.671875 -43.953125 C 52.546875 -44.441406 52.210938 -44.6875 51.671875 -44.6875 C 51.128906 -44.6875 50.734375 -44.441406 50.484375 -43.953125 C 49.765625 -42.140625 49.007812 -40.234375 48.21875 -38.234375 C 47.4375 -36.234375 46.617188 -34.144531 45.765625 -31.96875 C 42.859375 -24.457031 40.554688 -18.21875 38.859375 -13.25 C 37.171875 -8.289062 35.960938 -4.722656 35.234375 -2.546875 C 34.753906 -0.847656 33.601562 0 31.78125 0 L 11.8125 0 C 10.476562 0 9.445312 -0.570312 8.71875 -1.71875 C 7.988281 -2.875 7.925781 -4.054688 8.53125 -5.265625 C 9.863281 -7.804688 11.617188 -11.316406 13.796875 -15.796875 C 15.984375 -20.273438 18.46875 -25.664062 21.25 -31.96875 C 24.394531 -38.988281 26.9375 -44.859375 28.875 -49.578125 C 30.8125 -54.304688 32.207031 -57.878906 33.0625 -60.296875 C 33.90625 -62.472656 33.90625 -64.65625 33.0625 -66.84375 C 32.207031 -69.132812 30.8125 -72.671875 28.875 -77.453125 C 26.9375 -82.242188 24.394531 -88.148438 21.25 -95.171875 C 18.46875 -101.460938 15.984375 -106.847656 13.796875 -111.328125 C 11.617188 -115.816406 9.863281 -119.332031 8.53125 -121.875 C 7.925781 -123.082031 7.988281 -124.257812 8.71875 -125.40625 C 9.445312 -126.5625 10.476562 -127.140625 11.8125 -127.140625 L 31.78125 -127.140625 C 33.601562 -127.140625 34.753906 -126.289062 35.234375 -124.59375 C 35.960938 -122.414062 37.171875 -118.84375 38.859375 -113.875 C 40.554688 -108.914062 42.859375 -102.679688 45.765625 -95.171875 C 46.617188 -92.992188 47.4375 -90.90625 48.21875 -88.90625 C 49.007812 -86.90625 49.765625 -85 50.484375 -83.1875 C 50.734375 -82.695312 51.128906 -82.453125 51.671875 -82.453125 C 52.210938 -82.453125 52.546875 -82.695312 52.671875 -83.1875 C 53.398438 -85 54.15625 -86.90625 54.9375 -88.90625 C 55.726562 -90.90625 56.546875 -92.992188 57.390625 -95.171875 C 60.296875 -102.679688 62.625 -108.914062 64.375 -113.875 C 66.132812 -118.84375 67.316406 -122.414062 67.921875 -124.59375 C 68.523438 -126.289062 69.675781 -127.140625 71.375 -127.140625 Z M 91.53125 -127.140625 "/></g></g><g style="fill:#02d67e;fill-opacity:1;"><g transform="translate(230.508432, 255.309685)"><path style="stroke:none" d="M 97.890625 -111.515625 C 97.890625 -110.546875 97.523438 -109.695312 96.796875 -108.96875 C 96.078125 -108.25 95.234375 -107.890625 94.265625 -107.890625 L 70.65625 -107.890625 C 69.6875 -107.890625 68.867188 -107.554688 68.203125 -106.890625 C 67.535156 -106.222656 67.203125 -105.40625 67.203125 -104.4375 C 67.078125 -99.226562 66.984375 -93.234375 66.921875 -86.453125 C 66.867188 -79.671875 66.84375 -72.039062 66.84375 -63.5625 C 66.84375 -47.820312 66.929688 -34.894531 67.109375 -24.78125 C 67.296875 -14.675781 67.445312 -7.625 67.5625 -3.625 C 67.6875 -2.65625 67.382812 -1.804688 66.65625 -1.078125 C 65.925781 -0.359375 65.078125 0 64.109375 0 L 42.859375 0 C 41.890625 0 41.039062 -0.359375 40.3125 -1.078125 C 39.59375 -1.804688 39.234375 -2.65625 39.234375 -3.625 C 39.472656 -7.625 39.679688 -14.675781 39.859375 -24.78125 C 40.046875 -34.894531 40.140625 -47.820312 40.140625 -63.5625 C 40.140625 -72.039062 40.109375 -79.671875 40.046875 -86.453125 C 39.984375 -93.234375 39.894531 -99.226562 39.78125 -104.4375 C 39.78125 -105.40625 39.445312 -106.222656 38.78125 -106.890625 C 38.113281 -107.554688 37.234375 -107.890625 36.140625 -107.890625 L 12.71875 -107.890625 C 11.75 -107.890625 10.898438 -108.25 10.171875 -108.96875 C 9.441406 -109.695312 9.078125 -110.546875 9.078125 -111.515625 L 9.078125 -123.5 C 9.078125 -124.46875 9.441406 -125.316406 10.171875 -126.046875 C 10.898438 -126.773438 11.75 -127.140625 12.71875 -127.140625 L 94.265625 -127.140625 C 95.234375 -127.140625 96.078125 -126.773438 96.796875 -126.046875 C 97.523438 -125.316406 97.890625 -124.46875 97.890625 -123.5 Z M 97.890625 -111.515625 "/></g></g><g clip-rule="nonzero" clip-path="url(#3b6c3844e0)"><path style=" stroke:none;fill-rule:nonzero;fill:#02d67e;fill-opacity:1;" d="M 187.472656 365.222656 C 89.273438 365.222656 9.722656 285.125 9.722656 187.472656 C 9.722656 89.820312 89.273438 9.722656 187.472656 9.722656 C 285.675781 9.722656 365.222656 89.273438 365.222656 187.472656 C 365.222656 285.675781 285.125 365.222656 187.472656 365.222656 Z M 187.472656 20.695312 C 95.308594 20.695312 20.695312 95.308594 20.695312 187.472656 C 20.695312 279.640625 95.308594 354.25 187.472656 354.25 C 279.640625 354.25 354.25 279.640625 354.25 187.472656 C 354.25 95.308594 279.089844 20.695312 187.472656 20.695312 Z M 187.472656 20.695312 "/></g></g></svg>