<svg xmlns="http://www.w3.org/2000/svg" xmlns:xlink="http://www.w3.org/1999/xlink" width="2400" zoomAndPan="magnify" viewBox="0 0 1800 809.999993" height="1080" preserveAspectRatio="xMidYMid meet" version="1.2"><defs><clipPath id="783c119543"><path d="M 163.082031 179.011719 L 1800 179.011719 L 1800 809.992188 L 163.082031 809.992188 Z M 163.082031 179.011719 "/></clipPath><clipPath id="db1a0f9e18"><path d="M 163.082031 179.011719 L 1799.996094 179.011719 L 1661.304688 494.5 L 1799.996094 809.992188 L 163.082031 809.992188 Z M 163.082031 179.011719 "/></clipPath></defs><g id="54d8757f7f"><g clip-rule="nonzero" clip-path="url(#783c119543)"><g clip-rule="nonzero" clip-path="url(#db1a0f9e18)"><path style=" stroke:none;fill-rule:nonzero;fill:#02d67e;fill-opacity:1;" d="M 163.082031 809.992188 L 163.082031 179.011719 L 1799.695312 179.011719 L 1799.695312 809.992188 Z M 163.082031 809.992188 "/></g></g><path style="fill:none;stroke-width:8;stroke-linecap:butt;stroke-linejoin:miter;stroke:#000000;stroke-opacity:1;stroke-miterlimit:4;" d="M -0.000582954 4.000022 L 1882.843262 4.000022 " transform="matrix(0.75,0,0,0.75,208.957468,724.499984)"/><path style="fill:none;stroke-width:8;stroke-linecap:butt;stroke-linejoin:miter;stroke:#000000;stroke-opacity:1;stroke-miterlimit:4;" d="M -0.00242751 4.00246 L 435.691432 4.002472 " transform="matrix(0.00172137,-0.749998,0.749998,0.00172137,203.705198,727.487383)"/><path style="fill:none;stroke-width:8;stroke-linecap:butt;stroke-linejoin:miter;stroke:#000000;stroke-opacity:1;stroke-miterlimit:4;" d="M -0.00177911 4.00154 L 1880.633732 4.00154 " transform="matrix(0.75,0,0,0.75,210.614616,247.881658)"/><path style="fill:none;stroke-width:8;stroke-linecap:butt;stroke-linejoin:miter;stroke:#000000;stroke-opacity:1;stroke-miterlimit:4;" d="M 0.000525229 4.001305 L 431.969297 4.001305 " transform="matrix(0,0.75,-0.75,0,1624.090822,250.882419)"/><g style="fill:#000000;fill-opacity:1;"><g transform="translate(283.116733, 547.690833)"><path style="stroke:none" d="M 41.796875 -26.453125 C 41.796875 -25.335938 42.175781 -24.359375 42.9375 -23.515625 C 43.707031 -22.679688 44.65625 -22.265625 45.78125 -22.265625 L 86.734375 -22.265625 C 87.847656 -22.265625 88.828125 -21.84375 89.671875 -21 C 90.515625 -20.15625 90.9375 -19.175781 90.9375 -18.0625 L 90.9375 -4.203125 C 90.9375 -3.078125 90.515625 -2.09375 89.671875 -1.25 C 88.828125 -0.414062 87.847656 0 86.734375 0 L 14.703125 0 C 13.578125 0 12.59375 -0.414062 11.75 -1.25 C 10.914062 -2.09375 10.5 -3.078125 10.5 -4.203125 L 10.5 -142.796875 C 10.5 -143.921875 10.914062 -144.898438 11.75 -145.734375 C 12.59375 -146.578125 13.578125 -147 14.703125 -147 L 39.265625 -147 C 40.523438 -147 41.539062 -146.578125 42.3125 -145.734375 C 43.082031 -144.898438 43.46875 -143.921875 43.46875 -142.796875 C 43.46875 -139.015625 43.363281 -133.097656 43.15625 -125.046875 C 42.945312 -117.003906 42.769531 -107.59375 42.625 -96.8125 C 42.488281 -86.03125 42.316406 -74.582031 42.109375 -62.46875 C 41.898438 -50.363281 41.796875 -38.359375 41.796875 -26.453125 Z M 41.796875 -26.453125 "/></g></g><g style="fill:#000000;fill-opacity:1;"><g transform="translate(383.496565, 547.690833)"><path style="stroke:none" d="M 100.59375 0 C 98.207031 0 96.804688 -1.117188 96.390625 -3.359375 C 96.109375 -5.316406 95.617188 -8.113281 94.921875 -11.75 C 94.222656 -15.394531 93.382812 -19.878906 92.40625 -25.203125 C 91.976562 -27.441406 90.644531 -28.5625 88.40625 -28.5625 L 50.40625 -28.5625 C 48.164062 -28.5625 46.765625 -27.441406 46.203125 -25.203125 C 45.222656 -19.878906 44.414062 -15.394531 43.78125 -11.75 C 43.15625 -8.113281 42.628906 -5.316406 42.203125 -3.359375 C 41.929688 -1.117188 40.601562 0 38.21875 0 L 13.65625 0 C 12.25 0 11.125 -0.523438 10.28125 -1.578125 C 9.445312 -2.628906 9.238281 -3.785156 9.65625 -5.046875 C 10.78125 -9.941406 12.671875 -18.164062 15.328125 -29.71875 C 17.984375 -41.269531 21.203125 -55.863281 24.984375 -73.5 C 29.046875 -92.394531 32.195312 -107.757812 34.4375 -119.59375 C 36.675781 -131.425781 38.144531 -139.441406 38.84375 -143.640625 C 39.269531 -145.878906 40.601562 -147 42.84375 -147 L 95.765625 -147 C 98.140625 -147 99.535156 -145.878906 99.953125 -143.640625 C 100.660156 -139.441406 102.132812 -131.425781 104.375 -119.59375 C 106.613281 -107.757812 109.691406 -92.394531 113.609375 -73.5 C 117.390625 -55.863281 120.609375 -41.269531 123.265625 -29.71875 C 125.929688 -18.164062 127.894531 -9.941406 129.15625 -5.046875 C 129.425781 -3.785156 129.140625 -2.628906 128.296875 -1.578125 C 127.460938 -0.523438 126.414062 0 125.15625 0 Z M 56.484375 -50.8125 L 82.3125 -50.8125 C 83.570312 -50.8125 84.625 -51.300781 85.46875 -52.28125 C 86.3125 -53.269531 86.59375 -54.394531 86.3125 -55.65625 C 85.75 -58.445312 85.148438 -61.347656 84.515625 -64.359375 C 83.890625 -67.367188 83.226562 -70.414062 82.53125 -73.5 C 80.425781 -83.4375 78.5 -92.429688 76.75 -100.484375 C 75 -108.535156 73.425781 -115.5 72.03125 -121.375 C 71.75 -122.78125 70.875 -123.484375 69.40625 -123.484375 C 67.9375 -123.484375 66.988281 -122.78125 66.5625 -121.375 C 65.3125 -115.5 63.773438 -108.535156 61.953125 -100.484375 C 60.128906 -92.429688 58.164062 -83.4375 56.0625 -73.5 C 55.363281 -70.414062 54.695312 -67.367188 54.0625 -64.359375 C 53.4375 -61.347656 52.847656 -58.445312 52.296875 -55.65625 C 52.015625 -54.394531 52.289062 -53.269531 53.125 -52.28125 C 53.96875 -51.300781 55.085938 -50.8125 56.484375 -50.8125 Z M 56.484375 -50.8125 "/></g></g><g style="fill:#000000;fill-opacity:1;"><g transform="translate(522.306295, 547.690833)"><path style="stroke:none" d="M 113.1875 -128.9375 C 113.1875 -127.820312 112.765625 -126.84375 111.921875 -126 C 111.085938 -125.15625 110.109375 -124.734375 108.984375 -124.734375 L 81.6875 -124.734375 C 80.570312 -124.734375 79.628906 -124.347656 78.859375 -123.578125 C 78.085938 -122.816406 77.703125 -121.875 77.703125 -120.75 C 77.554688 -114.726562 77.445312 -107.796875 77.375 -99.953125 C 77.3125 -92.117188 77.28125 -83.300781 77.28125 -73.5 C 77.28125 -55.300781 77.382812 -40.351562 77.59375 -28.65625 C 77.800781 -16.96875 77.976562 -8.816406 78.125 -4.203125 C 78.257812 -3.078125 77.90625 -2.09375 77.0625 -1.25 C 76.226562 -0.414062 75.25 0 74.125 0 L 49.5625 0 C 48.4375 0 47.453125 -0.414062 46.609375 -1.25 C 45.773438 -2.09375 45.359375 -3.078125 45.359375 -4.203125 C 45.640625 -8.816406 45.882812 -16.96875 46.09375 -28.65625 C 46.300781 -40.351562 46.40625 -55.300781 46.40625 -73.5 C 46.40625 -83.300781 46.367188 -92.117188 46.296875 -99.953125 C 46.234375 -107.796875 46.128906 -114.726562 45.984375 -120.75 C 45.984375 -121.875 45.597656 -122.816406 44.828125 -123.578125 C 44.066406 -124.347656 43.054688 -124.734375 41.796875 -124.734375 L 14.703125 -124.734375 C 13.578125 -124.734375 12.59375 -125.15625 11.75 -126 C 10.914062 -126.84375 10.5 -127.820312 10.5 -128.9375 L 10.5 -142.796875 C 10.5 -143.921875 10.914062 -144.898438 11.75 -145.734375 C 12.59375 -146.578125 13.578125 -147 14.703125 -147 L 108.984375 -147 C 110.109375 -147 111.085938 -146.578125 111.921875 -145.734375 C 112.765625 -144.898438 113.1875 -143.921875 113.1875 -142.796875 Z M 113.1875 -128.9375 "/></g></g><g style="fill:#000000;fill-opacity:1;"><g transform="translate(645.996093, 547.690833)"><path style="stroke:none" d="M 105.84375 -128.9375 C 105.84375 -127.820312 105.457031 -126.84375 104.6875 -126 C 103.914062 -125.15625 102.898438 -124.734375 101.640625 -124.734375 L 46.828125 -124.734375 C 45.710938 -124.734375 44.734375 -124.347656 43.890625 -123.578125 C 43.046875 -122.816406 42.625 -121.875 42.625 -120.75 C 42.625 -116.40625 42.585938 -111.570312 42.515625 -106.25 C 42.453125 -100.9375 42.347656 -95.128906 42.203125 -88.828125 C 42.203125 -87.710938 42.625 -86.734375 43.46875 -85.890625 C 44.3125 -85.046875 45.289062 -84.625 46.40625 -84.625 L 90.71875 -84.625 C 91.84375 -84.625 92.820312 -84.203125 93.65625 -83.359375 C 94.5 -82.523438 94.921875 -81.550781 94.921875 -80.4375 L 94.921875 -66.5625 C 94.921875 -65.445312 94.5 -64.46875 93.65625 -63.625 C 92.820312 -62.789062 91.84375 -62.375 90.71875 -62.375 L 46.40625 -62.375 C 45.289062 -62.375 44.3125 -61.953125 43.46875 -61.109375 C 42.625 -60.265625 42.203125 -59.285156 42.203125 -58.171875 C 42.347656 -51.867188 42.453125 -46.054688 42.515625 -40.734375 C 42.585938 -35.421875 42.625 -30.59375 42.625 -26.25 C 42.625 -25.125 43.046875 -24.175781 43.890625 -23.40625 C 44.734375 -22.644531 45.710938 -22.265625 46.828125 -22.265625 L 101.640625 -22.265625 C 102.898438 -22.265625 103.914062 -21.84375 104.6875 -21 C 105.457031 -20.15625 105.84375 -19.175781 105.84375 -18.0625 L 105.84375 -4.203125 C 105.84375 -3.078125 105.457031 -2.09375 104.6875 -1.25 C 103.914062 -0.414062 102.898438 0 101.640625 0 L 14.703125 0 C 13.441406 0 12.425781 -0.414062 11.65625 -1.25 C 10.882812 -2.09375 10.5 -3.078125 10.5 -4.203125 C 10.632812 -8.816406 10.84375 -16.96875 11.125 -28.65625 C 11.40625 -40.351562 11.546875 -55.300781 11.546875 -73.5 C 11.546875 -91.84375 11.40625 -106.820312 11.125 -118.4375 C 10.84375 -130.0625 10.632812 -138.179688 10.5 -142.796875 C 10.5 -143.921875 10.882812 -144.898438 11.65625 -145.734375 C 12.425781 -146.578125 13.441406 -147 14.703125 -147 L 101.640625 -147 C 102.898438 -147 103.914062 -146.578125 104.6875 -145.734375 C 105.457031 -144.898438 105.84375 -143.921875 105.84375 -142.796875 Z M 105.84375 -128.9375 "/></g></g><g style="fill:#000000;fill-opacity:1;"><g transform="translate(762.545877, 547.690833)"><path style="stroke:none" d=""/></g></g><g style="fill:#000000;fill-opacity:1;"><g transform="translate(825.125738, 547.690833)"><path style="stroke:none" d="M 43.6875 -106.46875 C 43.6875 -102.125 45.363281 -98.65625 48.71875 -96.0625 C 52.082031 -93.476562 56.457031 -91.238281 61.84375 -89.34375 C 67.238281 -87.457031 72.941406 -85.460938 78.953125 -83.359375 C 84.972656 -81.265625 90.675781 -78.570312 96.0625 -75.28125 C 101.457031 -71.988281 105.832031 -67.578125 109.1875 -62.046875 C 112.550781 -56.523438 114.234375 -49.351562 114.234375 -40.53125 C 114.234375 -31.570312 112.625 -23.90625 109.40625 -17.53125 C 106.1875 -11.164062 100.832031 -6.300781 93.34375 -2.9375 C 85.851562 0.414062 75.804688 2.09375 63.203125 2.09375 C 51.171875 2.09375 41.375 0.132812 33.8125 -3.78125 C 26.25 -7.695312 20.613281 -12.835938 16.90625 -19.203125 C 13.195312 -25.578125 11.0625 -32.335938 10.5 -39.484375 C 10.363281 -40.597656 10.710938 -41.609375 11.546875 -42.515625 C 12.390625 -43.429688 13.441406 -43.890625 14.703125 -43.890625 L 39.484375 -43.890625 C 42.003906 -43.890625 43.332031 -42.628906 43.46875 -40.109375 C 43.75 -37.585938 44.484375 -34.785156 45.671875 -31.703125 C 46.859375 -28.628906 48.816406 -25.9375 51.546875 -23.625 C 54.285156 -21.3125 58.035156 -20.15625 62.796875 -20.15625 C 68.390625 -20.15625 72.476562 -21.097656 75.0625 -22.984375 C 77.65625 -24.878906 79.335938 -27.398438 80.109375 -30.546875 C 80.878906 -33.703125 81.265625 -37.03125 81.265625 -40.53125 C 81.265625 -45.007812 79.550781 -48.578125 76.125 -51.234375 C 72.695312 -53.898438 68.285156 -56.175781 62.890625 -58.0625 C 57.503906 -59.957031 51.800781 -61.953125 45.78125 -64.046875 C 39.757812 -66.148438 34.085938 -68.84375 28.765625 -72.125 C 23.453125 -75.414062 19.078125 -79.789062 15.640625 -85.25 C 12.210938 -90.71875 10.5 -97.789062 10.5 -106.46875 C 10.5 -115.425781 12.144531 -123.085938 15.4375 -129.453125 C 18.726562 -135.828125 24.082031 -140.691406 31.5 -144.046875 C 38.914062 -147.410156 48.992188 -149.09375 61.734375 -149.09375 C 73.640625 -149.09375 83.234375 -147.132812 90.515625 -143.21875 C 97.796875 -139.300781 103.1875 -134.15625 106.6875 -127.78125 C 110.1875 -121.414062 112.210938 -114.660156 112.765625 -107.515625 C 112.765625 -106.398438 112.378906 -105.382812 111.609375 -104.46875 C 110.835938 -103.5625 109.820312 -103.109375 108.5625 -103.109375 L 83.796875 -103.109375 C 81.273438 -103.109375 79.875 -104.367188 79.59375 -106.890625 C 79.445312 -109.410156 78.921875 -112.207031 78.015625 -115.28125 C 77.109375 -118.363281 75.425781 -121.0625 72.96875 -123.375 C 70.519531 -125.6875 66.914062 -126.84375 62.15625 -126.84375 C 56.5625 -126.84375 52.429688 -125.894531 49.765625 -124 C 47.109375 -122.113281 45.429688 -119.59375 44.734375 -116.4375 C 44.035156 -113.289062 43.6875 -109.96875 43.6875 -106.46875 Z M 43.6875 -106.46875 "/></g></g><g style="fill:#000000;fill-opacity:1;"><g transform="translate(950.075576, 547.690833)"><path style="stroke:none" d="M 108.359375 -147 C 109.617188 -147 110.632812 -146.578125 111.40625 -145.734375 C 112.175781 -144.898438 112.5625 -143.921875 112.5625 -142.796875 C 112.414062 -139.160156 112.238281 -133.664062 112.03125 -126.3125 C 111.820312 -118.96875 111.613281 -110.601562 111.40625 -101.21875 C 111.195312 -91.84375 111.019531 -82.148438 110.875 -72.140625 C 110.738281 -62.128906 110.671875 -52.644531 110.671875 -43.6875 C 110.671875 -34.863281 109.195312 -26.984375 106.25 -20.046875 C 103.3125 -13.117188 98.273438 -7.660156 91.140625 -3.671875 C 84.003906 0.316406 74.132812 2.3125 61.53125 2.3125 C 51.875 2.3125 43.894531 1.019531 37.59375 -1.5625 C 31.289062 -4.15625 26.285156 -7.65625 22.578125 -12.0625 C 18.867188 -16.476562 16.242188 -21.414062 14.703125 -26.875 C 13.160156 -32.332031 12.390625 -37.9375 12.390625 -43.6875 C 12.390625 -52.644531 12.316406 -62.128906 12.171875 -72.140625 C 12.035156 -82.148438 11.863281 -91.84375 11.65625 -101.21875 C 11.445312 -110.601562 11.234375 -118.96875 11.015625 -126.3125 C 10.804688 -133.664062 10.632812 -139.160156 10.5 -142.796875 C 10.5 -143.921875 10.882812 -144.898438 11.65625 -145.734375 C 12.425781 -146.578125 13.441406 -147 14.703125 -147 L 39.265625 -147 C 40.390625 -147 41.367188 -146.578125 42.203125 -145.734375 C 43.046875 -144.898438 43.46875 -143.921875 43.46875 -142.796875 L 43.46875 -43.6875 C 43.46875 -42.425781 43.570312 -40.5 43.78125 -37.90625 C 43.988281 -35.3125 44.617188 -32.648438 45.671875 -29.921875 C 46.722656 -27.191406 48.472656 -24.847656 50.921875 -22.890625 C 53.367188 -20.929688 56.765625 -19.953125 61.109375 -19.953125 C 66.710938 -19.953125 70.804688 -21.210938 73.390625 -23.734375 C 75.984375 -26.253906 77.664062 -29.332031 78.4375 -32.96875 C 79.207031 -36.613281 79.59375 -40.1875 79.59375 -43.6875 L 79.59375 -142.796875 C 79.59375 -143.921875 80.007812 -144.898438 80.84375 -145.734375 C 81.6875 -146.578125 82.671875 -147 83.796875 -147 Z M 108.359375 -147 "/></g></g><g style="fill:#000000;fill-opacity:1;"><g transform="translate(1073.345329, 547.690833)"><path style="stroke:none" d="M 91.34375 -72.03125 C 98.207031 -70.207031 103.53125 -67.054688 107.3125 -62.578125 C 111.09375 -58.097656 112.984375 -51.378906 112.984375 -42.421875 C 112.984375 -33.316406 111.617188 -26 108.890625 -20.46875 C 106.160156 -14.945312 102.414062 -10.679688 97.65625 -7.671875 C 92.894531 -4.660156 87.429688 -2.628906 81.265625 -1.578125 C 75.109375 -0.523438 68.597656 0 61.734375 0 L 14.703125 0 C 13.441406 0 12.425781 -0.414062 11.65625 -1.25 C 10.882812 -2.09375 10.5 -3.078125 10.5 -4.203125 C 10.632812 -8.816406 10.84375 -16.96875 11.125 -28.65625 C 11.40625 -40.351562 11.546875 -55.300781 11.546875 -73.5 C 11.546875 -91.84375 11.40625 -106.820312 11.125 -118.4375 C 10.84375 -130.0625 10.632812 -138.179688 10.5 -142.796875 C 10.5 -143.921875 10.882812 -144.898438 11.65625 -145.734375 C 12.425781 -146.578125 13.441406 -147 14.703125 -147 L 60.265625 -147 C 67.128906 -147 73.640625 -146.472656 79.796875 -145.421875 C 85.960938 -144.367188 91.421875 -142.335938 96.171875 -139.328125 C 100.929688 -136.316406 104.675781 -132.046875 107.40625 -126.515625 C 110.144531 -120.992188 111.515625 -113.679688 111.515625 -104.578125 C 111.515625 -95.898438 109.765625 -89.320312 106.265625 -84.84375 C 102.765625 -80.363281 97.789062 -77.210938 91.34375 -75.390625 C 90.507812 -75.109375 90.09375 -74.546875 90.09375 -73.703125 C 90.09375 -72.867188 90.507812 -72.3125 91.34375 -72.03125 Z M 60.6875 -124.734375 L 46.828125 -124.734375 C 45.710938 -124.734375 44.734375 -124.347656 43.890625 -123.578125 C 43.046875 -122.816406 42.625 -121.875 42.625 -120.75 C 42.625 -116.40625 42.585938 -111.570312 42.515625 -106.25 C 42.453125 -100.9375 42.347656 -95.128906 42.203125 -88.828125 C 42.203125 -87.710938 42.625 -86.734375 43.46875 -85.890625 C 44.3125 -85.046875 45.289062 -84.625 46.40625 -84.625 L 60.6875 -84.625 C 65.3125 -84.625 68.914062 -85.640625 71.5 -87.671875 C 74.09375 -89.703125 75.878906 -92.253906 76.859375 -95.328125 C 77.835938 -98.410156 78.328125 -101.566406 78.328125 -104.796875 C 78.328125 -110.390625 77.3125 -114.617188 75.28125 -117.484375 C 73.25 -120.359375 70.867188 -122.285156 68.140625 -123.265625 C 65.410156 -124.242188 62.925781 -124.734375 60.6875 -124.734375 Z M 62.15625 -22.265625 C 64.257812 -22.265625 66.707031 -22.753906 69.5 -23.734375 C 72.300781 -24.710938 74.71875 -26.632812 76.75 -29.5 C 78.78125 -32.375 79.796875 -36.679688 79.796875 -42.421875 C 79.796875 -45.503906 79.304688 -48.582031 78.328125 -51.65625 C 77.347656 -54.738281 75.5625 -57.296875 72.96875 -59.328125 C 70.382812 -61.359375 66.78125 -62.375 62.15625 -62.375 L 46.40625 -62.375 C 45.289062 -62.375 44.3125 -61.953125 43.46875 -61.109375 C 42.625 -60.265625 42.203125 -59.285156 42.203125 -58.171875 C 42.347656 -51.867188 42.453125 -46.054688 42.515625 -40.734375 C 42.585938 -35.421875 42.625 -30.59375 42.625 -26.25 C 42.625 -25.125 43.046875 -24.175781 43.890625 -23.40625 C 44.734375 -22.644531 45.710938 -22.265625 46.828125 -22.265625 Z M 62.15625 -22.265625 "/></g></g><g style="fill:#000000;fill-opacity:1;"><g transform="translate(1196.825152, 547.690833)"><path style="stroke:none" d="M 156.453125 -147 C 157.566406 -147 158.546875 -146.578125 159.390625 -145.734375 C 160.234375 -144.898438 160.65625 -143.921875 160.65625 -142.796875 C 160.507812 -138.179688 160.296875 -130.0625 160.015625 -118.4375 C 159.734375 -106.820312 159.59375 -91.84375 159.59375 -73.5 C 159.59375 -55.300781 159.734375 -40.351562 160.015625 -28.65625 C 160.296875 -16.96875 160.507812 -8.816406 160.65625 -4.203125 C 160.65625 -3.078125 160.234375 -2.09375 159.390625 -1.25 C 158.546875 -0.414062 157.566406 0 156.453125 0 L 131.875 0 C 130.757812 0 129.78125 -0.414062 128.9375 -1.25 C 128.101562 -2.09375 127.753906 -3.078125 127.890625 -4.203125 C 128.023438 -8.816406 128.234375 -16.96875 128.515625 -28.65625 C 128.796875 -40.351562 128.9375 -55.300781 128.9375 -73.5 C 128.9375 -82.320312 128.898438 -90.335938 128.828125 -97.546875 C 128.765625 -104.753906 128.660156 -111.226562 128.515625 -116.96875 C 128.515625 -118.09375 127.988281 -118.6875 126.9375 -118.75 C 125.894531 -118.820312 125.234375 -118.300781 124.953125 -117.1875 C 123.972656 -111.582031 122.851562 -105.101562 121.59375 -97.75 C 120.332031 -90.40625 119 -82.320312 117.59375 -73.5 C 114.65625 -54.875 112.347656 -39.644531 110.671875 -27.8125 C 108.992188 -15.988281 107.941406 -7.90625 107.515625 -3.5625 C 107.097656 -1.1875 105.695312 0 103.3125 0 L 67.828125 0 C 65.304688 0 63.90625 -1.1875 63.625 -3.5625 C 63.070312 -7.90625 61.988281 -15.988281 60.375 -27.8125 C 58.757812 -39.644531 56.414062 -54.875 53.34375 -73.5 C 51.9375 -82.320312 50.601562 -90.40625 49.34375 -97.75 C 48.082031 -105.101562 46.960938 -111.582031 45.984375 -117.1875 C 45.847656 -118.300781 45.253906 -118.820312 44.203125 -118.75 C 43.148438 -118.6875 42.625 -118.09375 42.625 -116.96875 C 42.488281 -111.226562 42.382812 -104.753906 42.3125 -97.546875 C 42.238281 -90.335938 42.203125 -82.320312 42.203125 -73.5 C 42.203125 -55.300781 42.34375 -40.351562 42.625 -28.65625 C 42.90625 -16.96875 43.117188 -8.816406 43.265625 -4.203125 C 43.265625 -3.078125 42.878906 -2.09375 42.109375 -1.25 C 41.335938 -0.414062 40.320312 0 39.0625 0 L 14.703125 0 C 13.441406 0 12.425781 -0.414062 11.65625 -1.25 C 10.882812 -2.09375 10.5 -3.078125 10.5 -4.203125 C 10.632812 -8.816406 10.84375 -16.96875 11.125 -28.65625 C 11.40625 -40.351562 11.546875 -55.300781 11.546875 -73.5 C 11.546875 -91.84375 11.40625 -106.820312 11.125 -118.4375 C 10.84375 -130.0625 10.632812 -138.179688 10.5 -142.796875 C 10.5 -143.921875 10.882812 -144.898438 11.65625 -145.734375 C 12.425781 -146.578125 13.441406 -147 14.703125 -147 L 62.375 -147 C 64.75 -147 66.078125 -145.8125 66.359375 -143.4375 C 66.921875 -139.09375 68.003906 -131.039062 69.609375 -119.28125 C 71.222656 -107.519531 73.570312 -92.257812 76.65625 -73.5 C 78.050781 -64.957031 79.34375 -57.113281 80.53125 -49.96875 C 81.71875 -42.832031 82.804688 -36.46875 83.796875 -30.875 C 83.929688 -29.894531 84.488281 -29.40625 85.46875 -29.40625 C 86.445312 -29.40625 87.007812 -29.894531 87.15625 -30.875 C 88.269531 -36.46875 89.421875 -42.832031 90.609375 -49.96875 C 91.804688 -57.113281 93.101562 -64.957031 94.5 -73.5 C 97.4375 -92.257812 99.742188 -107.519531 101.421875 -119.28125 C 103.109375 -131.039062 104.160156 -139.09375 104.578125 -143.4375 C 104.859375 -145.8125 106.257812 -147 108.78125 -147 Z M 156.453125 -147 "/></g></g><g style="fill:#000000;fill-opacity:1;"><g transform="translate(1367.974828, 547.690833)"><path style="stroke:none" d="M 43.265625 -4.203125 C 43.265625 -3.078125 42.878906 -2.09375 42.109375 -1.25 C 41.335938 -0.414062 40.320312 0 39.0625 0 L 14.703125 0 C 13.441406 0 12.425781 -0.414062 11.65625 -1.25 C 10.882812 -2.09375 10.5 -3.078125 10.5 -4.203125 C 10.632812 -8.816406 10.84375 -16.96875 11.125 -28.65625 C 11.40625 -40.351562 11.546875 -55.300781 11.546875 -73.5 C 11.546875 -91.84375 11.40625 -106.820312 11.125 -118.4375 C 10.84375 -130.0625 10.632812 -138.179688 10.5 -142.796875 C 10.5 -143.921875 10.882812 -144.898438 11.65625 -145.734375 C 12.425781 -146.578125 13.441406 -147 14.703125 -147 L 39.0625 -147 C 40.320312 -147 41.335938 -146.578125 42.109375 -145.734375 C 42.878906 -144.898438 43.265625 -143.921875 43.265625 -142.796875 C 43.117188 -138.179688 42.90625 -130.0625 42.625 -118.4375 C 42.34375 -106.820312 42.203125 -91.84375 42.203125 -73.5 C 42.203125 -55.300781 42.34375 -40.351562 42.625 -28.65625 C 42.90625 -16.96875 43.117188 -8.816406 43.265625 -4.203125 Z M 43.265625 -4.203125 "/></g></g><g style="fill:#000000;fill-opacity:1;"><g transform="translate(1421.734774, 547.690833)"><path style="stroke:none" d="M 113.1875 -128.9375 C 113.1875 -127.820312 112.765625 -126.84375 111.921875 -126 C 111.085938 -125.15625 110.109375 -124.734375 108.984375 -124.734375 L 81.6875 -124.734375 C 80.570312 -124.734375 79.628906 -124.347656 78.859375 -123.578125 C 78.085938 -122.816406 77.703125 -121.875 77.703125 -120.75 C 77.554688 -114.726562 77.445312 -107.796875 77.375 -99.953125 C 77.3125 -92.117188 77.28125 -83.300781 77.28125 -73.5 C 77.28125 -55.300781 77.382812 -40.351562 77.59375 -28.65625 C 77.800781 -16.96875 77.976562 -8.816406 78.125 -4.203125 C 78.257812 -3.078125 77.90625 -2.09375 77.0625 -1.25 C 76.226562 -0.414062 75.25 0 74.125 0 L 49.5625 0 C 48.4375 0 47.453125 -0.414062 46.609375 -1.25 C 45.773438 -2.09375 45.359375 -3.078125 45.359375 -4.203125 C 45.640625 -8.816406 45.882812 -16.96875 46.09375 -28.65625 C 46.300781 -40.351562 46.40625 -55.300781 46.40625 -73.5 C 46.40625 -83.300781 46.367188 -92.117188 46.296875 -99.953125 C 46.234375 -107.796875 46.128906 -114.726562 45.984375 -120.75 C 45.984375 -121.875 45.597656 -122.816406 44.828125 -123.578125 C 44.066406 -124.347656 43.054688 -124.734375 41.796875 -124.734375 L 14.703125 -124.734375 C 13.578125 -124.734375 12.59375 -125.15625 11.75 -126 C 10.914062 -126.84375 10.5 -127.820312 10.5 -128.9375 L 10.5 -142.796875 C 10.5 -143.921875 10.914062 -144.898438 11.75 -145.734375 C 12.59375 -146.578125 13.578125 -147 14.703125 -147 L 108.984375 -147 C 110.109375 -147 111.085938 -146.578125 111.921875 -145.734375 C 112.765625 -144.898438 113.1875 -143.921875 113.1875 -142.796875 Z M 113.1875 -128.9375 "/></g></g></g></svg>