<?xml version="1.0" encoding="UTF-8" standalone="no"?>
<!-- Created with Inkscape (http://www.inkscape.org/) -->

<svg
   width="194.65279mm"
   height="58.696205mm"
   viewBox="0 0 194.65279 58.696205"
   version="1.1"
   id="svg1"
   xml:space="preserve"
   xmlns:inkscape="http://www.inkscape.org/namespaces/inkscape"
   xmlns:sodipodi="http://sodipodi.sourceforge.net/DTD/sodipodi-0.dtd"
   xmlns="http://www.w3.org/2000/svg"
   xmlns:svg="http://www.w3.org/2000/svg"><sodipodi:namedview
     id="namedview1"
     pagecolor="#505050"
     bordercolor="#eeeeee"
     borderopacity="1"
     inkscape:showpageshadow="0"
     inkscape:pageopacity="0"
     inkscape:pagecheckerboard="0"
     inkscape:deskcolor="#505050"
     inkscape:document-units="mm"><inkscape:page
       x="0"
       y="-5.5707994e-13"
       width="194.65279"
       height="58.696201"
       id="page2"
       margin="0"
       bleed="0" /></sodipodi:namedview><defs
     id="defs1" /><g
     inkscape:label="Layer 1"
     inkscape:groupmode="layer"
     id="layer1"
     transform="translate(-8.1727893,-122.3348)"><path
       style="fill:#ffffff;fill-opacity:1;stroke-width:0.908412"
       d="m 11.790671,180.72402 c -4.2448058,-0.7074 -4.8932569,-2.82198 -1.205184,-3.93007 0.847189,-0.25454 2.459685,-0.74044 3.583324,-1.07976 1.123639,-0.33933 2.908243,-0.7887 3.965786,-0.9986 5.047871,-1.00191 7.030765,-2.30344 10.602915,-6.95958 1.490625,-1.94296 3.345456,-6.65634 3.085863,-7.84159 -0.174637,-0.79736 -0.260223,-0.82309 -3.834403,-1.15238 -3.494879,-0.32199 -7.036855,-0.86176 -7.961371,-1.21327 -0.374625,-0.14243 -1.53624,-0.40824 -2.581367,-0.5907 -5.627345,-0.9824 -9.050362,-4.41391 -9.0416642,-9.06409 0.012568,-6.7195 1.9801202,-9.26321 9.4723742,-12.24612 1.331444,-0.5301 2.528966,-1.04776 2.661159,-1.15037 0.132193,-0.10261 0.997455,-0.42528 1.922805,-0.71707 0.925349,-0.29177 2.651733,-0.91585 3.836407,-1.38682 2.947278,-1.17171 3.677398,-0.93912 6.911498,2.20177 1.255444,1.21926 2.460293,2.28501 2.67744,2.36834 2.150759,0.82533 -6.16679,4.8333 -9.044316,4.3582 -1.486074,-0.24538 -5.126947,1.73388 -5.921901,3.21926 -0.825407,1.54229 -0.725168,6.75918 0.152299,7.92632 0.54293,0.72217 0.579988,0.72589 4.573585,0.45869 6.521251,-0.43631 11.825989,2.62568 12.405433,7.16064 0.165354,1.29412 -0.154423,2.06467 -2.607265,6.28261 -0.526435,0.90526 -1.13737,2.02448 -1.357632,2.48715 -0.220262,0.46268 -0.657438,1.11163 -0.971502,1.44211 -0.314064,0.33048 -1.290738,1.52022 -2.170385,2.64386 -1.846768,2.35901 -1.846768,2.35901 -3.436298,3.75355 -0.961055,0.84316 -1.702739,1.21551 -3.703066,1.85903 -1.375723,0.44258 -2.747395,1.04154 -3.048162,1.33103 -1.136104,1.09345 -5.17046,1.47044 -8.966372,0.83786 z m 34.786237,-1.17183 c -0.327543,-0.53717 -0.44111,-1.21141 -0.445327,-2.64386 -0.0031,-1.05754 -0.114238,-2.67407 -0.246943,-3.59228 -0.375361,-2.59718 -0.485593,-6.8925 -0.197717,-7.70419 0.198685,-0.56022 0.14278,-1.31081 -0.25063,-3.36492 -0.523535,-2.73354 -1.019329,-19.11161 -0.534774,-17.66577 0.259947,0.77565 0.394873,0.0995 0.756181,-3.78952 0.413423,-4.44997 0.672456,-6.16982 0.942834,-6.25994 0.14078,-0.047 0.25744,-0.37374 0.259245,-0.72626 0.0047,-0.92576 0.258722,-1.7375 0.497471,-1.58995 0.30418,0.188 0.940787,-1.49968 0.945032,-2.50533 0.002,-0.47958 0.108525,-1.0342 0.23667,-1.23249 0.199112,-0.30811 0.233525,-0.29937 0.23667,0.0601 0.0143,1.63398 1.193872,-0.72235 1.209114,-2.41534 0.0032,-0.35179 0.03616,-0.35852 0.23667,-0.0482 0.18146,0.28079 0.233804,0.21388 0.236671,-0.30252 0.002,-0.36468 0.328153,-1.11097 0.724732,-1.65843 0.396578,-0.54747 0.721051,-1.13501 0.721051,-1.30566 0,-1.02661 2.909855,-0.22813 3.399877,0.93294 0.355967,0.84344 0.419739,11.15941 0.10497,16.98032 -0.219269,4.05485 -0.1363,4.1742 2.14943,3.09187 2.17656,-1.03063 7.05034,-1.15955 9.615032,-0.25434 0.797032,0.28132 2.011833,0.58613 2.699558,0.67736 1.712688,0.2272 2.355558,0.69283 1.439446,1.0426 -0.82891,0.31649 -0.885904,1.32748 -0.181039,3.21139 2.755226,7.36401 2.718369,22.03861 -0.05723,22.78601 -0.531861,0.14321 -1.154693,0.37759 -1.384072,0.52084 -1.359447,0.84899 -1.778433,-1.37394 -1.549161,-8.21908 0.250851,-7.48941 -1.654441,-15.80357 -3.510363,-15.31823 -2.570916,0.67231 -6.369306,4.35314 -7.861737,7.6184 -0.903177,1.97605 -0.987692,5.20152 -0.289695,11.05613 0.149721,1.25583 0.31237,3.3513 0.36144,4.6566 0.04907,1.3053 0.211527,2.96241 0.361012,3.68248 0.295164,1.42181 -0.459079,3.19776 -1.358077,3.19776 -0.209056,0 -0.667191,0.20312 -1.01808,0.45139 -0.350889,0.24827 -1.124689,0.53122 -1.719557,0.62878 -0.594868,0.0976 -1.297894,0.2914 -1.56228,0.43071 -1.202354,0.6336 -4.491687,0.34926 -4.966424,-0.42931 z m 38.505582,-3.29713 c -0.890292,-2.48606 -2.167715,-11.12486 -2.231319,-15.0897 -0.130309,-8.123 0.06683,-12.73858 0.544093,-12.73858 0.285919,0 0.532647,-0.28694 0.710749,-0.8266 0.209014,-0.63331 0.424118,-0.84406 0.919955,-0.9013 0.589011,-0.068 0.653735,-0.1773 0.720409,-1.21639 0.08166,-1.27257 1.050246,-1.51432 3.472106,-0.86657 0.964019,0.25784 1.141497,0.22103 2.827569,-0.58642 3.474468,-1.6639 13.808308,-2.4157 17.767828,-1.29264 5.29709,1.50245 7.83541,4.25681 5.43148,5.8938 -0.98897,0.67344 -1.13697,0.63999 -1.85739,-0.41973 -3.31464,-4.8758 -15.390427,-1.93259 -18.463087,4.49998 -2.049383,4.29035 -2.312,13.01588 -0.590651,19.62458 0.643129,2.46914 0.300859,3.01783 -1.898911,3.0441 -0.877082,0.0104 -1.543088,0.15937 -1.894276,0.42348 -0.68329,0.51388 -2.684504,0.98745 -3.786346,0.896 -0.462675,-0.0384 -0.964638,0.0234 -1.115473,0.1375 -0.183707,0.13888 -0.367504,-0.0531 -0.556736,-0.58151 z m 43.45493,0.61056 c -2.08126,-0.0955 -2.08126,-0.0955 -2.34342,-1.28826 -0.8526,-3.87904 -1.13005,-5.83263 -1.46647,-10.32603 -0.12372,-1.65241 -0.28985,-3.37207 -0.36917,-3.82145 -0.42723,-2.42032 -0.1172,-13.07987 0.39429,-13.5564 0.33567,-0.31272 0.46532,-0.6637 0.39024,-1.05644 -0.13888,-0.72655 0.71924,-1.13439 1.99071,-0.94614 4.93525,0.73075 4.59059,0.32496 4.92667,5.80061 0.073,1.18974 0.30018,4.65079 0.5048,7.69123 0.20462,3.04043 0.3783,7.12952 0.38596,9.08687 0.0113,2.90935 0.0739,3.53577 0.34298,3.43254 0.1996,-0.0766 0.32964,0.0362 0.33053,0.2868 8.2e-4,0.22719 0.17279,0.73754 0.38216,1.13412 1.95007,3.69374 1.64976,3.88935 -5.46928,3.56255 z m 18.54528,-4.88447 c -3.43544,-0.18082 -3.9964,-1.62346 -3.41127,-8.77281 0.0216,-0.26438 0.15855,-1.67043 0.30423,-3.12455 0.19825,-1.97885 0.19334,-3.26204 -0.0195,-5.10155 -0.25185,-2.17607 -0.24048,-2.50165 0.0992,-2.84129 0.47041,-0.47041 0.48667,-1.19846 0.0541,-2.42447 -0.26007,-0.73714 -0.36863,-3.24588 -0.18248,-4.21688 0.38172,-1.991 2.45079,-2.09112 3.84553,-0.18606 1.31673,1.79851 1.20324,1.82671 2.70522,-0.67228 0.69521,-1.15669 1.35142,-2.13912 1.45824,-2.18319 0.10682,-0.044 0.19422,-0.23302 0.19422,-0.41992 0,-3.42607 6.71218,-4.48646 12.12599,-1.91566 0.66741,0.31693 1.57935,0.71175 2.02653,0.87739 1.19216,0.44156 2.23274,1.38971 2.07402,1.88977 -0.0764,0.24076 0.2246,1.00887 0.71362,1.82097 0.46518,0.7725 0.84579,1.49959 0.84579,1.61573 0,0.11616 0.29743,0.66331 0.66096,1.2159 0.36352,0.55259 0.91686,1.5455 1.22965,2.20646 0.31277,0.66097 0.79704,1.63438 1.07615,2.16316 1.01536,1.9236 1.34854,2.6533 1.42665,3.12456 0.0438,0.26438 0.27208,0.84445 0.50723,1.28903 0.64368,1.21699 1.09456,3.19539 1.23325,5.41144 0.0684,1.09301 0.23048,2.35722 0.36015,2.80935 0.36429,1.2702 0.29513,1.52745 -0.54537,2.02855 -2.02477,1.20717 -3.16933,0.6839 -3.54444,-1.62043 -1.069,-6.5671 -1.9953,-9.8022 -3.83766,-13.40303 -3.42053,-6.68526 -5.76658,-9.16878 -7.30023,-7.728 -0.30553,0.28704 -0.6286,0.44879 -0.71794,0.35944 -0.0893,-0.0893 -0.16244,-0.0331 -0.16244,0.12506 0,0.15811 -0.41878,0.81729 -0.93065,1.46484 -4.63106,5.85874 -7.58716,17.75701 -6.07917,24.46861 0.20036,0.89173 0.16918,1.03524 -0.28847,1.3277 -0.80745,0.51603 -1.27679,0.6339 -1.52713,0.38356 -0.13655,-0.13654 -0.61644,-0.15347 -1.17095,-0.0413 -0.51677,0.10454 -1.96707,0.136 -3.22291,0.0699 z m 50.60158,-1.51669 c -0.22001,-0.33577 -0.71735,-0.72113 -1.10521,-0.85634 -0.38785,-0.1352 -0.70519,-0.34804 -0.70519,-0.47296 0,-0.4303 -0.8502,-0.59357 -3.96579,-0.76157 -3.32272,-0.17916 -4.34184,-0.48336 -6.48947,-1.93706 -1.21539,-0.82268 -3.00438,-2.6257 -3.00438,-3.02795 0,-0.16819 -0.19925,-0.66059 -0.44277,-1.09424 -1.70068,-3.02842 -2.28869,-4.32202 -2.59248,-5.70335 -0.57984,-2.63661 -0.64381,-3.13684 -0.40116,-3.13684 0.41732,0 0.55332,0.30992 0.28034,0.63885 -0.19844,0.23909 -0.1937,0.32255 0.0182,0.32255 0.1766,0 0.22763,0.18385 0.13341,0.4807 -0.0906,0.28542 -0.0432,0.4807 0.11668,0.4807 0.29809,0 0.29426,-2.73622 -0.006,-4.37888 -0.0965,-0.52792 -0.0891,-1.24581 0.0165,-1.5953 0.17526,-0.57976 0.1939,-0.58806 0.21275,-0.0947 0.0113,0.29743 0.12882,0.54079 0.26101,0.54079 0.35043,0 0.29485,-1.67663 -0.06,-1.81281 -0.3846,-0.14756 -0.35784,-3.35043 0.0421,-5.03719 0.43089,-1.81734 2.46353,-3.55084 3.8397,-3.27461 0.18512,0.0371 0.78,-0.0896 1.32192,-0.28159 0.54193,-0.19202 1.44046,-0.47388 1.99672,-0.62634 0.95954,-0.26298 1.3802,-0.5919 1.38843,-1.08561 0.0101,-0.60599 1.42866,-1.05667 1.92649,-0.61204 0.83418,0.74503 2.4049,1.02787 3.76802,0.67852 3.10619,-0.7961 8.06173,2.97984 8.54259,6.50914 0.36067,2.64718 -1.32049,6.23161 -3.50138,7.46533 -0.35052,0.19829 -0.69139,0.42949 -0.75749,0.51378 -0.5251,0.66961 -4.40367,1.56377 -4.94608,1.14025 -0.30898,-0.24124 -3.22584,0.23107 -3.22584,0.52234 0,0.42956 -2.6788,0.0551 -3.32735,-0.4651 -1.99966,-1.60399 -2.11659,-1.57856 -1.7116,0.37222 1.5048,7.24859 4.43613,11.66523 7.41567,11.17317 2.74291,-0.45299 4.37395,-1.29817 7.95836,-4.12389 0.67889,-0.5352 1.32951,-0.61642 1.58796,-0.19823 0.41609,0.67325 0.5232,2.21785 0.18915,2.72768 -0.29281,0.44689 -0.28778,0.61648 0.0377,1.26887 0.43699,0.87596 0.14452,3.18916 -0.49217,3.89269 -0.19867,0.21953 -0.36121,0.51111 -0.36121,0.64797 0,1.10921 -3.35177,2.12628 -3.95801,1.20102 z m -2.42154,-21.05967 c 0.076,-0.12305 0.0283,-0.29167 -0.106,-0.37471 -0.35636,-0.22025 -0.29881,-0.53094 0.12874,-0.69501 0.20516,-0.0788 0.31155,-0.0437 0.23644,0.0779 -0.0751,0.12154 -0.0485,0.27541 0.059,0.34191 0.36071,0.22292 0.77141,-0.2289 0.85689,-0.94269 0.0466,-0.38901 0.31689,-1.08585 0.60068,-1.54852 0.28379,-0.46268 0.51639,-1.23978 0.51688,-1.7269 4.9e-4,-0.48712 0.10637,-1.1631 0.23529,-1.50219 0.70101,-1.84377 -0.8484,-2.51639 -4.87536,-2.11646 -5.68984,0.56509 -7.82956,2.09645 -8.22478,5.88634 -0.19882,1.90642 -0.2871,1.86704 2.78908,1.24372 1.38001,-0.27962 1.99494,-0.31105 2.3516,-0.12017 0.26562,0.14215 0.80296,0.25846 1.19408,0.25846 0.43127,0 0.76944,0.15192 0.85927,0.38602 0.107,0.27885 0.31964,0.34298 0.76595,0.23096 0.54051,-0.13566 0.59835,-0.0937 0.46226,0.33503 -0.16751,0.52777 1.83501,0.77587 2.14991,0.26635 z m -69.94569,-14.40693 c -0.40422,-0.24651 -1.3229,-1.05728 -2.04149,-1.80173 -0.71859,-0.74445 -1.48295,-1.35354 -1.69858,-1.35354 -0.38856,0 -0.69249,-0.8919 -0.69249,-2.03207 0,-0.30497 0.56108,-1.14989 1.32193,-1.99065 0.72705,-0.80343 1.32192,-1.57896 1.32192,-1.72341 0,-0.63011 2.164,-0.26347 4.02711,0.68231 1.02381,0.51973 2.1394,1.00359 2.47909,1.07528 3.81601,0.80524 2.58889,6.63239 -1.39671,6.63239 -0.46359,0 -1.09629,0.21141 -1.43865,0.48071 -0.75291,0.59224 -0.95586,0.59555 -1.88213,0.0307 z"
       id="path1" /></g></svg>
