<svg xmlns="http://www.w3.org/2000/svg" xmlns:xlink="http://www.w3.org/1999/xlink" width="2400" zoomAndPan="magnify" viewBox="0 0 1800 809.999993" height="1080" preserveAspectRatio="xMidYMid meet" version="1.2"><defs><clipPath id="e5603b5978"><path d="M 163.082031 179.011719 L 1800 179.011719 L 1800 809.992188 L 163.082031 809.992188 Z M 163.082031 179.011719 "/></clipPath><clipPath id="eee3fee61a"><path d="M 163.082031 179.011719 L 1799.996094 179.011719 L 1661.304688 494.5 L 1799.996094 809.992188 L 163.082031 809.992188 Z M 163.082031 179.011719 "/></clipPath></defs><g id="1fbdb7cef5"><g clip-rule="nonzero" clip-path="url(#e5603b5978)"><g clip-rule="nonzero" clip-path="url(#eee3fee61a)"><path style=" stroke:none;fill-rule:nonzero;fill:#02d67e;fill-opacity:1;" d="M 163.082031 809.992188 L 163.082031 179.011719 L 1799.695312 179.011719 L 1799.695312 809.992188 Z M 163.082031 809.992188 "/></g></g><path style="fill:none;stroke-width:8;stroke-linecap:butt;stroke-linejoin:miter;stroke:#000000;stroke-opacity:1;stroke-miterlimit:4;" d="M -0.000582954 4.000022 L 1882.843262 4.000022 " transform="matrix(0.75,0,0,0.75,208.957468,724.499984)"/><path style="fill:none;stroke-width:8;stroke-linecap:butt;stroke-linejoin:miter;stroke:#000000;stroke-opacity:1;stroke-miterlimit:4;" d="M -0.00242751 4.00246 L 435.691432 4.002472 " transform="matrix(0.00172137,-0.749998,0.749998,0.00172137,203.705198,727.487383)"/><path style="fill:none;stroke-width:8;stroke-linecap:butt;stroke-linejoin:miter;stroke:#000000;stroke-opacity:1;stroke-miterlimit:4;" d="M -0.00177911 4.00154 L 1880.633732 4.00154 " transform="matrix(0.75,0,0,0.75,210.614616,247.881658)"/><path style="fill:none;stroke-width:8;stroke-linecap:butt;stroke-linejoin:miter;stroke:#000000;stroke-opacity:1;stroke-miterlimit:4;" d="M 0.000525229 4.001305 L 431.969297 4.001305 " transform="matrix(0,0.75,-0.75,0,1624.090822,250.882419)"/><g style="fill:#000000;fill-opacity:1;"><g transform="translate(228.488931, 630.864131)"><path style="stroke:none" d="M 82.875 -202.03125 C 82.875 -193.789062 86.0625 -187.210938 92.4375 -182.296875 C 98.820312 -177.378906 107.125 -173.128906 117.34375 -169.546875 C 127.570312 -165.960938 138.394531 -162.175781 149.8125 -158.1875 C 161.238281 -154.207031 172.066406 -149.09375 182.296875 -142.84375 C 192.523438 -136.601562 200.828125 -128.238281 207.203125 -117.75 C 213.578125 -107.257812 216.765625 -93.644531 216.765625 -76.90625 C 216.765625 -59.90625 213.707031 -45.359375 207.59375 -33.265625 C 201.488281 -21.179688 191.328125 -11.953125 177.109375 -5.578125 C 162.898438 0.796875 143.84375 3.984375 119.9375 3.984375 C 97.09375 3.984375 78.5 0.265625 64.15625 -7.171875 C 49.8125 -14.609375 39.117188 -24.367188 32.078125 -36.453125 C 25.035156 -48.546875 20.984375 -61.363281 19.921875 -74.90625 C 19.660156 -77.03125 20.328125 -78.957031 21.921875 -80.6875 C 23.515625 -82.414062 25.503906 -83.28125 27.890625 -83.28125 L 74.90625 -83.28125 C 79.6875 -83.28125 82.210938 -80.890625 82.484375 -76.109375 C 83.015625 -71.328125 84.40625 -66.015625 86.65625 -60.171875 C 88.914062 -54.328125 92.632812 -49.210938 97.8125 -44.828125 C 103 -40.441406 110.109375 -38.25 119.140625 -38.25 C 129.765625 -38.25 137.535156 -40.039062 142.453125 -43.625 C 147.367188 -47.21875 150.554688 -52 152.015625 -57.96875 C 153.472656 -63.945312 154.203125 -70.257812 154.203125 -76.90625 C 154.203125 -85.40625 150.945312 -92.175781 144.4375 -97.21875 C 137.9375 -102.269531 129.570312 -106.585938 119.34375 -110.171875 C 109.113281 -113.765625 98.285156 -117.550781 86.859375 -121.53125 C 75.441406 -125.519531 64.6875 -130.632812 54.59375 -136.875 C 44.5 -143.113281 36.195312 -151.410156 29.6875 -161.765625 C 23.175781 -172.128906 19.921875 -185.550781 19.921875 -202.03125 C 19.921875 -219.03125 23.039062 -233.570312 29.28125 -245.65625 C 35.53125 -257.738281 45.691406 -266.96875 59.765625 -273.34375 C 73.847656 -279.71875 92.976562 -282.90625 117.15625 -282.90625 C 139.726562 -282.90625 157.921875 -279.1875 171.734375 -271.75 C 185.546875 -264.3125 195.773438 -254.550781 202.421875 -242.46875 C 209.066406 -230.382812 212.921875 -217.566406 213.984375 -204.015625 C 213.984375 -201.890625 213.25 -199.960938 211.78125 -198.234375 C 210.320312 -196.503906 208.398438 -195.640625 206.015625 -195.640625 L 158.984375 -195.640625 C 154.203125 -195.640625 151.546875 -198.035156 151.015625 -202.828125 C 150.753906 -207.609375 149.757812 -212.921875 148.03125 -218.765625 C 146.300781 -224.609375 143.113281 -229.71875 138.46875 -234.09375 C 133.820312 -238.476562 126.984375 -240.671875 117.953125 -240.671875 C 107.328125 -240.671875 99.488281 -238.878906 94.4375 -235.296875 C 89.382812 -231.710938 86.191406 -226.929688 84.859375 -220.953125 C 83.535156 -214.972656 82.875 -208.664062 82.875 -202.03125 Z M 82.875 -202.03125 "/></g></g><g style="fill:#000000;fill-opacity:1;"><g transform="translate(465.577181, 630.864131)"><path style="stroke:none" d="M 205.609375 -278.921875 C 208.003906 -278.921875 209.929688 -278.125 211.390625 -276.53125 C 212.847656 -274.9375 213.578125 -273.078125 213.578125 -270.953125 C 213.316406 -264.046875 212.984375 -253.617188 212.578125 -239.671875 C 212.179688 -225.734375 211.785156 -209.863281 211.390625 -192.0625 C 210.992188 -174.257812 210.660156 -155.863281 210.390625 -136.875 C 210.128906 -117.882812 210 -99.882812 210 -82.875 C 210 -66.144531 207.207031 -51.203125 201.625 -38.046875 C 196.039062 -24.898438 186.472656 -14.539062 172.921875 -6.96875 C 159.378906 0.601562 140.65625 4.390625 116.75 4.390625 C 98.414062 4.390625 83.269531 1.929688 71.3125 -2.984375 C 59.363281 -7.898438 49.867188 -14.539062 42.828125 -22.90625 C 35.796875 -31.28125 30.816406 -40.644531 27.890625 -51 C 24.972656 -61.363281 23.515625 -71.988281 23.515625 -82.875 C 23.515625 -99.882812 23.378906 -117.882812 23.109375 -136.875 C 22.847656 -155.863281 22.515625 -174.257812 22.109375 -192.0625 C 21.710938 -209.863281 21.316406 -225.734375 20.921875 -239.671875 C 20.523438 -253.617188 20.191406 -264.046875 19.921875 -270.953125 C 19.921875 -273.078125 20.648438 -274.9375 22.109375 -276.53125 C 23.578125 -278.125 25.503906 -278.921875 27.890625 -278.921875 L 74.515625 -278.921875 C 76.640625 -278.921875 78.5 -278.125 80.09375 -276.53125 C 81.6875 -274.9375 82.484375 -273.078125 82.484375 -270.953125 L 82.484375 -82.875 C 82.484375 -80.488281 82.679688 -76.835938 83.078125 -71.921875 C 83.472656 -67.003906 84.664062 -61.957031 86.65625 -56.78125 C 88.65625 -51.601562 91.976562 -47.15625 96.625 -43.4375 C 101.28125 -39.71875 107.722656 -37.859375 115.953125 -37.859375 C 126.578125 -37.859375 134.347656 -40.25 139.265625 -45.03125 C 144.179688 -49.8125 147.367188 -55.65625 148.828125 -62.5625 C 150.285156 -69.46875 151.015625 -76.238281 151.015625 -82.875 L 151.015625 -270.953125 C 151.015625 -273.078125 151.8125 -274.9375 153.40625 -276.53125 C 155 -278.125 156.859375 -278.921875 158.984375 -278.921875 Z M 205.609375 -278.921875 "/></g></g><g style="fill:#000000;fill-opacity:1;"><g transform="translate(699.477604, 630.864131)"><path style="stroke:none" d="M 173.328125 -136.671875 C 186.347656 -133.222656 196.441406 -127.25 203.609375 -118.75 C 210.785156 -110.25 214.375 -97.492188 214.375 -80.484375 C 214.375 -63.222656 211.78125 -49.34375 206.59375 -38.84375 C 201.414062 -28.351562 194.3125 -20.253906 185.28125 -14.546875 C 176.25 -8.835938 165.890625 -4.984375 154.203125 -2.984375 C 142.515625 -0.992188 130.164062 0 117.15625 0 L 27.890625 0 C 25.503906 0 23.578125 -0.796875 22.109375 -2.390625 C 20.648438 -3.984375 19.921875 -5.84375 19.921875 -7.96875 C 20.191406 -16.738281 20.59375 -32.210938 21.125 -54.390625 C 21.65625 -76.566406 21.921875 -104.925781 21.921875 -139.46875 C 21.921875 -174.257812 21.65625 -202.679688 21.125 -224.734375 C 20.59375 -246.785156 20.191406 -262.191406 19.921875 -270.953125 C 19.921875 -273.078125 20.648438 -274.9375 22.109375 -276.53125 C 23.578125 -278.125 25.503906 -278.921875 27.890625 -278.921875 L 114.359375 -278.921875 C 127.378906 -278.921875 139.734375 -277.925781 151.421875 -275.9375 C 163.109375 -273.945312 173.46875 -270.09375 182.5 -264.375 C 191.53125 -258.664062 198.632812 -250.566406 203.8125 -240.078125 C 209 -229.585938 211.59375 -215.707031 211.59375 -198.4375 C 211.59375 -181.96875 208.269531 -169.484375 201.625 -160.984375 C 194.976562 -152.484375 185.546875 -146.503906 173.328125 -143.046875 C 171.734375 -142.515625 170.9375 -141.453125 170.9375 -139.859375 C 170.9375 -138.265625 171.734375 -137.203125 173.328125 -136.671875 Z M 115.15625 -236.6875 L 88.859375 -236.6875 C 86.734375 -236.6875 84.875 -235.957031 83.28125 -234.5 C 81.6875 -233.039062 80.890625 -231.25 80.890625 -229.125 C 80.890625 -220.882812 80.820312 -211.71875 80.6875 -201.625 C 80.550781 -191.53125 80.351562 -180.503906 80.09375 -168.546875 C 80.09375 -166.421875 80.890625 -164.5625 82.484375 -162.96875 C 84.078125 -161.375 85.9375 -160.578125 88.0625 -160.578125 L 115.15625 -160.578125 C 123.925781 -160.578125 130.765625 -162.503906 135.671875 -166.359375 C 140.585938 -170.210938 143.972656 -175.0625 145.828125 -180.90625 C 147.691406 -186.75 148.625 -192.722656 148.625 -198.828125 C 148.625 -209.460938 146.695312 -217.5 142.84375 -222.9375 C 139 -228.382812 134.484375 -232.035156 129.296875 -233.890625 C 124.117188 -235.753906 119.40625 -236.6875 115.15625 -236.6875 Z M 117.953125 -42.234375 C 121.929688 -42.234375 126.578125 -43.160156 131.890625 -45.015625 C 137.203125 -46.878906 141.785156 -50.535156 145.640625 -55.984375 C 149.492188 -61.429688 151.421875 -69.597656 151.421875 -80.484375 C 151.421875 -86.328125 150.488281 -92.171875 148.625 -98.015625 C 146.769531 -103.867188 143.382812 -108.71875 138.46875 -112.5625 C 133.550781 -116.414062 126.710938 -118.34375 117.953125 -118.34375 L 88.0625 -118.34375 C 85.9375 -118.34375 84.078125 -117.546875 82.484375 -115.953125 C 80.890625 -114.359375 80.09375 -112.5 80.09375 -110.375 C 80.351562 -98.414062 80.550781 -87.390625 80.6875 -77.296875 C 80.820312 -67.203125 80.890625 -58.039062 80.890625 -49.8125 C 80.890625 -47.6875 81.6875 -45.890625 83.28125 -44.421875 C 84.875 -42.960938 86.734375 -42.234375 88.859375 -42.234375 Z M 117.953125 -42.234375 "/></g></g><g style="fill:#000000;fill-opacity:1;"><g transform="translate(933.77664, 630.864131)"><path style="stroke:none" d="M 296.859375 -278.921875 C 298.984375 -278.921875 300.84375 -278.125 302.4375 -276.53125 C 304.03125 -274.9375 304.828125 -273.078125 304.828125 -270.953125 C 304.566406 -262.191406 304.171875 -246.785156 303.640625 -224.734375 C 303.109375 -202.679688 302.84375 -174.257812 302.84375 -139.46875 C 302.84375 -104.925781 303.109375 -76.566406 303.640625 -54.390625 C 304.171875 -32.210938 304.566406 -16.738281 304.828125 -7.96875 C 304.828125 -5.84375 304.03125 -3.984375 302.4375 -2.390625 C 300.84375 -0.796875 298.984375 0 296.859375 0 L 250.234375 0 C 248.109375 0 246.25 -0.796875 244.65625 -2.390625 C 243.0625 -3.984375 242.398438 -5.84375 242.671875 -7.96875 C 242.929688 -16.738281 243.328125 -32.210938 243.859375 -54.390625 C 244.390625 -76.566406 244.65625 -104.925781 244.65625 -139.46875 C 244.65625 -156.195312 244.585938 -171.398438 244.453125 -185.078125 C 244.328125 -198.765625 244.128906 -211.054688 243.859375 -221.953125 C 243.859375 -224.078125 242.863281 -225.203125 240.875 -225.328125 C 238.882812 -225.460938 237.625 -224.46875 237.09375 -222.34375 C 235.226562 -211.71875 233.097656 -199.429688 230.703125 -185.484375 C 228.316406 -171.535156 225.796875 -156.195312 223.140625 -139.46875 C 217.566406 -104.132812 213.1875 -75.242188 210 -52.796875 C 206.8125 -30.347656 204.816406 -15.007812 204.015625 -6.78125 C 203.222656 -2.257812 200.566406 0 196.046875 0 L 128.703125 0 C 123.921875 0 121.265625 -2.257812 120.734375 -6.78125 C 119.671875 -15.007812 117.613281 -30.347656 114.5625 -52.796875 C 111.507812 -75.242188 107.0625 -104.132812 101.21875 -139.46875 C 98.550781 -156.195312 96.019531 -171.535156 93.625 -185.484375 C 91.238281 -199.429688 89.117188 -211.71875 87.265625 -222.34375 C 86.992188 -224.46875 85.863281 -225.460938 83.875 -225.328125 C 81.882812 -225.203125 80.890625 -224.078125 80.890625 -221.953125 C 80.617188 -211.054688 80.414062 -198.765625 80.28125 -185.078125 C 80.15625 -171.398438 80.09375 -156.195312 80.09375 -139.46875 C 80.09375 -104.925781 80.359375 -76.566406 80.890625 -54.390625 C 81.421875 -32.210938 81.816406 -16.738281 82.078125 -7.96875 C 82.078125 -5.84375 81.347656 -3.984375 79.890625 -2.390625 C 78.429688 -0.796875 76.503906 0 74.109375 0 L 27.890625 0 C 25.503906 0 23.578125 -0.796875 22.109375 -2.390625 C 20.648438 -3.984375 19.921875 -5.84375 19.921875 -7.96875 C 20.191406 -16.738281 20.59375 -32.210938 21.125 -54.390625 C 21.65625 -76.566406 21.921875 -104.925781 21.921875 -139.46875 C 21.921875 -174.257812 21.65625 -202.679688 21.125 -224.734375 C 20.59375 -246.785156 20.191406 -262.191406 19.921875 -270.953125 C 19.921875 -273.078125 20.648438 -274.9375 22.109375 -276.53125 C 23.578125 -278.125 25.503906 -278.921875 27.890625 -278.921875 L 118.34375 -278.921875 C 122.863281 -278.921875 125.390625 -276.664062 125.921875 -272.15625 C 126.984375 -263.914062 129.039062 -248.640625 132.09375 -226.328125 C 135.144531 -204.015625 139.59375 -175.0625 145.4375 -139.46875 C 148.09375 -123.257812 150.550781 -108.378906 152.8125 -94.828125 C 155.070312 -81.285156 157.128906 -69.203125 158.984375 -58.578125 C 159.253906 -56.710938 160.316406 -55.78125 162.171875 -55.78125 C 164.035156 -55.78125 165.097656 -56.710938 165.359375 -58.578125 C 167.484375 -69.203125 169.675781 -81.285156 171.9375 -94.828125 C 174.195312 -108.378906 176.65625 -123.257812 179.3125 -139.46875 C 184.882812 -175.0625 189.265625 -204.015625 192.453125 -226.328125 C 195.640625 -248.640625 197.632812 -263.914062 198.4375 -272.15625 C 198.96875 -276.664062 201.625 -278.921875 206.40625 -278.921875 Z M 296.859375 -278.921875 "/></g></g><g style="fill:#000000;fill-opacity:1;"><g transform="translate(1258.527713, 630.864131)"><path style="stroke:none" d="M 82.078125 -7.96875 C 82.078125 -5.84375 81.347656 -3.984375 79.890625 -2.390625 C 78.429688 -0.796875 76.503906 0 74.109375 0 L 27.890625 0 C 25.503906 0 23.578125 -0.796875 22.109375 -2.390625 C 20.648438 -3.984375 19.921875 -5.84375 19.921875 -7.96875 C 20.191406 -16.738281 20.59375 -32.210938 21.125 -54.390625 C 21.65625 -76.566406 21.921875 -104.925781 21.921875 -139.46875 C 21.921875 -174.257812 21.65625 -202.679688 21.125 -224.734375 C 20.59375 -246.785156 20.191406 -262.191406 19.921875 -270.953125 C 19.921875 -273.078125 20.648438 -274.9375 22.109375 -276.53125 C 23.578125 -278.125 25.503906 -278.921875 27.890625 -278.921875 L 74.109375 -278.921875 C 76.503906 -278.921875 78.429688 -278.125 79.890625 -276.53125 C 81.347656 -274.9375 82.078125 -273.078125 82.078125 -270.953125 C 81.816406 -262.191406 81.421875 -246.785156 80.890625 -224.734375 C 80.359375 -202.679688 80.09375 -174.257812 80.09375 -139.46875 C 80.09375 -104.925781 80.359375 -76.566406 80.890625 -54.390625 C 81.421875 -32.210938 81.816406 -16.738281 82.078125 -7.96875 Z M 82.078125 -7.96875 "/></g></g><g style="fill:#000000;fill-opacity:1;"><g transform="translate(1360.535464, 630.864131)"><path style="stroke:none" d="M 214.78125 -244.65625 C 214.78125 -242.53125 213.984375 -240.671875 212.390625 -239.078125 C 210.796875 -237.484375 208.9375 -236.6875 206.8125 -236.6875 L 155 -236.6875 C 152.875 -236.6875 151.082031 -235.957031 149.625 -234.5 C 148.164062 -233.039062 147.4375 -231.25 147.4375 -229.125 C 147.164062 -217.695312 146.960938 -204.546875 146.828125 -189.671875 C 146.703125 -174.796875 146.640625 -158.0625 146.640625 -139.46875 C 146.640625 -104.925781 146.835938 -76.566406 147.234375 -54.390625 C 147.628906 -32.210938 147.960938 -16.738281 148.234375 -7.96875 C 148.492188 -5.84375 147.828125 -3.984375 146.234375 -2.390625 C 144.640625 -0.796875 142.78125 0 140.65625 0 L 94.03125 0 C 91.90625 0 90.046875 -0.796875 88.453125 -2.390625 C 86.859375 -3.984375 86.0625 -5.84375 86.0625 -7.96875 C 86.59375 -16.738281 87.054688 -32.210938 87.453125 -54.390625 C 87.859375 -76.566406 88.0625 -104.925781 88.0625 -139.46875 C 88.0625 -158.0625 87.992188 -174.796875 87.859375 -189.671875 C 87.722656 -204.546875 87.523438 -217.695312 87.265625 -229.125 C 87.265625 -231.25 86.53125 -233.039062 85.0625 -234.5 C 83.601562 -235.957031 81.679688 -236.6875 79.296875 -236.6875 L 27.890625 -236.6875 C 25.765625 -236.6875 23.90625 -237.484375 22.3125 -239.078125 C 20.71875 -240.671875 19.921875 -242.53125 19.921875 -244.65625 L 19.921875 -270.953125 C 19.921875 -273.078125 20.71875 -274.9375 22.3125 -276.53125 C 23.90625 -278.125 25.765625 -278.921875 27.890625 -278.921875 L 206.8125 -278.921875 C 208.9375 -278.921875 210.796875 -278.125 212.390625 -276.53125 C 213.984375 -274.9375 214.78125 -273.078125 214.78125 -270.953125 Z M 214.78125 -244.65625 "/></g></g></g></svg>